<svg width="32" height="32" viewBox="0 0 32 32" fill="none" xmlns="http://www.w3.org/2000/svg">
<mask id="path-1-inside-1_36_73980" fill="white">
<path d="M0 6.4C0 4.15979 0 3.03969 0.435974 2.18404C0.819467 1.43139 1.43139 0.819467 2.18404 0.435974C3.03969 0 4.15979 0 6.4 0H25.6C27.8402 0 28.9603 0 29.816 0.435974C30.5686 0.819467 31.1805 1.43139 31.564 2.18404C32 3.03969 32 4.15979 32 6.4V25.6C32 27.8402 32 28.9603 31.564 29.816C31.1805 30.5686 30.5686 31.1805 29.816 31.564C28.9603 32 27.8402 32 25.6 32H6.4C4.15979 32 3.03969 32 2.18404 31.564C1.43139 31.1805 0.819467 30.5686 0.435974 29.816C0 28.9603 0 27.8402 0 25.6V6.4Z"/>
</mask>
<path d="M0 6.4C0 4.15979 0 3.03969 0.435974 2.18404C0.819467 1.43139 1.43139 0.819467 2.18404 0.435974C3.03969 0 4.15979 0 6.4 0H25.6C27.8402 0 28.9603 0 29.816 0.435974C30.5686 0.819467 31.1805 1.43139 31.564 2.18404C32 3.03969 32 4.15979 32 6.4V25.6C32 27.8402 32 28.9603 31.564 29.816C31.1805 30.5686 30.5686 31.1805 29.816 31.564C28.9603 32 27.8402 32 25.6 32H6.4C4.15979 32 3.03969 32 2.18404 31.564C1.43139 31.1805 0.819467 30.5686 0.435974 29.816C0 28.9603 0 27.8402 0 25.6V6.4Z" fill="white"/>
<path d="M31.564 29.816L30.673 29.362L31.564 29.816ZM29.816 31.564L29.362 30.673L29.816 31.564ZM29.816 0.435974L30.27 -0.455033L29.816 0.435974ZM31.564 2.18404L30.673 2.63803L31.564 2.18404ZM2.18404 0.435974L1.73005 -0.455033L2.18404 0.435974ZM0.435974 2.18404L-0.455033 1.73005L0.435974 2.18404ZM6.4 1H25.6V-1H6.4V1ZM31 6.4V25.6H33V6.4H31ZM25.6 31H6.4V33H25.6V31ZM1 25.6V6.4H-1V25.6H1ZM6.4 31C5.26339 31 4.47108 30.9992 3.85424 30.9488C3.24907 30.8994 2.90138 30.8072 2.63803 30.673L1.73005 32.455C2.32234 32.7568 2.96253 32.8826 3.69138 32.9422C4.40855 33.0008 5.2964 33 6.4 33V31ZM-1 25.6C-1 26.7036 -1.00078 27.5914 -0.942182 28.3086C-0.882633 29.0375 -0.75682 29.6777 -0.455033 30.27L1.32698 29.362C1.19279 29.0986 1.10062 28.7509 1.05118 28.1458C1.00078 27.5289 1 26.7366 1 25.6H-1ZM2.63803 30.673C2.07354 30.3854 1.6146 29.9265 1.32698 29.362L-0.455033 30.27C0.0243343 31.2108 0.789237 31.9757 1.73005 32.455L2.63803 30.673ZM31 25.6C31 26.7366 30.9992 27.5289 30.9488 28.1458C30.8994 28.7509 30.8072 29.0986 30.673 29.362L32.455 30.27C32.7568 29.6777 32.8826 29.0375 32.9422 28.3086C33.0008 27.5914 33 26.7036 33 25.6H31ZM25.6 33C26.7036 33 27.5914 33.0008 28.3086 32.9422C29.0375 32.8826 29.6777 32.7568 30.27 32.455L29.362 30.673C29.0986 30.8072 28.7509 30.8994 28.1458 30.9488C27.5289 30.9992 26.7366 31 25.6 31V33ZM30.673 29.362C30.3854 29.9265 29.9265 30.3854 29.362 30.673L30.27 32.455C31.2108 31.9757 31.9757 31.2108 32.455 30.27L30.673 29.362ZM25.6 1C26.7366 1 27.5289 1.00078 28.1458 1.05118C28.7509 1.10062 29.0986 1.19279 29.362 1.32698L30.27 -0.455033C29.6777 -0.75682 29.0375 -0.882633 28.3086 -0.942182C27.5914 -1.00078 26.7036 -1 25.6 -1V1ZM33 6.4C33 5.2964 33.0008 4.40855 32.9422 3.69138C32.8826 2.96253 32.7568 2.32234 32.455 1.73005L30.673 2.63803C30.8072 2.90138 30.8994 3.24907 30.9488 3.85424C30.9992 4.47108 31 5.26339 31 6.4H33ZM29.362 1.32698C29.9265 1.6146 30.3854 2.07354 30.673 2.63803L32.455 1.73005C31.9757 0.789237 31.2108 0.0243343 30.27 -0.455033L29.362 1.32698ZM6.4 -1C5.2964 -1 4.40855 -1.00078 3.69138 -0.942182C2.96253 -0.882633 2.32234 -0.75682 1.73005 -0.455033L2.63803 1.32698C2.90138 1.19279 3.24907 1.10062 3.85424 1.05118C4.47108 1.00078 5.26339 1 6.4 1V-1ZM1 6.4C1 5.26339 1.00078 4.47108 1.05118 3.85424C1.10062 3.24907 1.19279 2.90138 1.32698 2.63803L-0.455033 1.73005C-0.75682 2.32234 -0.882633 2.96253 -0.942182 3.69138C-1.00078 4.40855 -1 5.2964 -1 6.4H1ZM1.73005 -0.455033C0.789237 0.0243343 0.0243343 0.789237 -0.455033 1.73005L1.32698 2.63803C1.6146 2.07354 2.07354 1.6146 2.63803 1.32698L1.73005 -0.455033Z" fill="#D5D8DD" mask="url(#path-1-inside-1_36_73980)"/>
<path d="M22.3877 10.9591C22.7596 10.5872 22.7596 9.98421 22.3877 9.61228C22.0158 9.24035 21.4128 9.24035 21.0408 9.61228L16 14.6531L10.9591 9.61228C10.5872 9.24035 9.98421 9.24035 9.61228 9.61228C9.24035 9.98421 9.24035 10.5872 9.61228 10.9591L14.6531 16L9.61228 21.0408C9.24035 21.4128 9.24035 22.0158 9.61228 22.3877C9.98421 22.7596 10.5872 22.7596 10.9591 22.3877L16 17.3469L21.0408 22.3877C21.4128 22.7596 22.0158 22.7596 22.3877 22.3877C22.7596 22.0158 22.7596 21.4128 22.3877 21.0408L17.3469 16L22.3877 10.9591Z" fill="#2E3238"/>
</svg>
